<svg xmlns="http://www.w3.org/2000/svg">
  <defs>
    <symbol id="icon-engine" viewBox="0 0 24 24">
      <path d="M8 2h2v3H8V2zm6 0h2v3h-2V2zM7 7h10v2H7V7zm0 4h10v6H7v-6zm-3 0h2v6H4v-6zm16 0h2v6h-2v-6zm-6 8h2v3h-2v-3zm-4 0h2v3H8v-3z"/>
    </symbol>
    <symbol id="icon-intake" viewBox="0 0 24 24">
      <path d="M12 2C8.13 2 5 5.13 5 9c0 2.38 1.19 4.47 3 5.74V17c0 .55.45 1 1 1h6c.55 0 1-.45 1-1v-2.26c1.81-1.27 3-3.36 3-5.74 0-3.87-3.13-7-7-7zm0 2c2.76 0 5 2.24 5 5s-2.24 5-5 5-5-2.24-5-5 2.24-5 5-5zm-1 7h2v7h-2v-7zm0-5h2v3h-2V6z"/>
    </symbol>
    <symbol id="icon-exhaust" viewBox="0 0 24 24">
      <path d="M17 8V7c0-1.66-1.34-3-3-3h-4c-1.66 0-3 1.34-3 3v1H5v2h2v7c0 1.66 1.34 3 3 3h4c1.66 0 3-1.34 3-3v-7h2V8h-2zm-8-1c0-.55.45-1 1-1h4c.55 0 1 .45 1 1v1H9V7zm6 10c0 .55-.45 1-1 1h-4c-.55 0-1-.45-1-1v-7h6v7z"/>
    </symbol>
    <symbol id="icon-turbo" viewBox="0 0 24 24">
      <path d="M12 2C6.48 2 2 6.48 2 12s4.48 10 10 10 10-4.48 10-10S17.52 2 12 2zm0 18c-4.41 0-8-3.59-8-8s3.59-8 8-8 8 3.59 8 8-3.59 8-8 8zm-5-9h10v2H7v-2zm3-4h4v2h-4V7zm0 8h4v2h-4v-2z"/>
    </symbol>
  </defs>
</svg>